<svg width="91" height="91" viewBox="0 0 91 91" fill="none" xmlns="http://www.w3.org/2000/svg">
<ellipse cx="45" cy="23" rx="29" ry="10" fill="#0076BF"/>
<path d="M18.9583 22.75C18.9583 22.8486 18.9962 23.3946 20.0655 24.3425C21.1272 25.2828 22.8865 26.3066 25.3814 27.2431C30.3485 29.1011 37.4617 30.3333 45.5 30.3333C53.5383 30.3333 60.6553 29.1048 65.6186 27.2431C68.1135 26.3066 69.869 25.2828 70.9345 24.3387C72.0038 23.3946 72.0417 22.8486 72.0417 22.75C72.0417 22.6514 72.0038 22.1054 70.9345 21.1575C69.8728 20.2172 68.1135 19.1934 65.6186 18.2569C60.6515 16.399 53.5383 15.1667 45.5 15.1667C37.4617 15.1667 30.3447 16.3952 25.3814 18.2569C22.8865 19.1934 21.131 20.2172 20.0655 21.1613C18.9962 22.1054 18.9583 22.6514 18.9583 22.75ZM11.375 22.75C11.375 19.7053 13.032 17.2597 15.034 15.4852C17.0435 13.7069 19.728 12.2774 22.7197 11.1551C28.7333 8.89905 36.7868 7.58334 45.5 7.58334C54.2095 7.58334 62.2667 8.89905 68.2803 11.1551C71.2757 12.2774 73.9603 13.7069 75.966 15.4852C77.9643 17.2597 79.625 19.7053 79.625 22.75V68.25C79.625 71.2947 77.9643 73.7403 75.966 75.5148C73.9565 77.2931 71.272 78.7226 68.2803 79.8449C62.2667 82.101 54.2133 83.4167 45.5 83.4167C36.7905 83.4167 28.7333 82.0972 22.7197 79.8449C19.7243 78.7226 17.0397 77.2931 15.034 75.5148C13.032 73.7403 11.375 71.2947 11.375 68.25V22.75ZM18.9583 37.9167C18.9583 38.0115 18.9962 38.5613 20.0655 39.5092C21.1272 40.4495 22.8865 41.4733 25.3814 42.4098C30.3485 44.2677 37.4617 45.5 45.5 45.5C53.5383 45.5 60.6553 44.2715 65.6186 42.4098C68.1135 41.4733 69.869 40.4495 70.9345 39.5054C72.0038 38.5575 72.0417 38.0115 72.0417 37.9167V32.669C70.8248 33.3071 69.5685 33.8668 68.2803 34.3449C62.2667 36.601 54.2133 37.9167 45.5 37.9167C36.7905 37.9167 28.7333 36.601 22.7197 34.3449C21.4315 33.8668 20.1752 33.3071 18.9583 32.669V37.9167ZM18.9583 47.8357V53.0833C18.9583 53.1781 18.9962 53.7279 20.0655 54.6758C21.1272 55.6162 22.8865 56.6399 25.3814 57.5765C30.3485 59.4344 37.4617 60.6667 45.5 60.6667C53.5383 60.6667 60.6553 59.4382 65.6186 57.5765C68.1135 56.6399 69.869 55.6162 70.9345 54.6721C72.0038 53.7241 72.0417 53.1781 72.0417 53.0833V47.8357C70.8663 48.4575 69.6036 49.0111 68.2803 49.5116C62.2667 51.7676 54.2133 53.0833 45.5 53.0833C36.7905 53.0833 28.7333 51.7638 22.7197 49.5116C21.4315 49.0335 20.1752 48.4738 18.9583 47.8357V47.8357ZM18.9583 63.0023V68.25C18.9583 68.3486 18.9962 68.8946 20.0655 69.8425C21.1272 70.7828 22.8865 71.8066 25.3814 72.7431C30.3485 74.6011 37.4617 75.8333 45.5 75.8333C53.5383 75.8333 60.6553 74.6048 65.6186 72.7431C68.1135 71.8066 69.869 70.7828 70.9345 69.8425C72.0038 68.8946 72.0417 68.3448 72.0417 68.25V63.0023C70.8663 63.6242 69.6036 64.1778 68.2803 64.6783C62.2667 66.9343 54.2133 68.25 45.5 68.25C36.7905 68.25 28.7333 66.9305 22.7197 64.6783C21.4315 64.2002 20.1752 63.6404 18.9583 63.0023V63.0023Z" fill="black"/>
</svg>
